<svg width="115" height="30" viewBox="0 0 115 30" fill="none" xmlns="http://www.w3.org/2000/svg">
<path d="M3.65 28.12C3.07667 28.12 2.58333 28.03 2.17 27.85C1.76333 27.6633 1.45 27.3667 1.23 26.96C1.01 26.5533 0.9 26.0267 0.9 25.38V21.14H1.69V25.54C1.69 26.1733 1.86 26.6467 2.2 26.96C2.54667 27.2733 3.03 27.43 3.65 27.43C4.28333 27.43 4.77667 27.2733 5.13 26.96C5.49 26.6467 5.67 26.1733 5.67 25.54V21.14H6.45V25.38C6.45 26.0267 6.33667 26.5533 6.11 26.96C5.89 27.3667 5.57 27.6633 5.15 27.85C4.73667 28.03 4.23667 28.12 3.65 28.12ZM7.47352 28L10.2435 24.41L7.72352 21.14H8.69352L10.7335 23.81H10.7835L12.7835 21.14H13.7135L11.2435 24.4L14.0135 28H13.0435L10.7535 25H10.7035L8.41352 28H7.47352ZM17.1698 28V21.14H19.6398C20.3731 21.14 20.9931 21.26 21.4998 21.5C22.0131 21.7333 22.4031 22.1033 22.6698 22.61C22.9431 23.11 23.0798 23.7633 23.0798 24.57C23.0798 25.3633 22.9431 26.0133 22.6698 26.52C22.4031 27.0267 22.0131 27.4 21.4998 27.64C20.9931 27.88 20.3731 28 19.6398 28H17.1698ZM17.9598 27.32H19.6098C20.0164 27.32 20.3831 27.2733 20.7098 27.18C21.0364 27.08 21.3164 26.9267 21.5498 26.72C21.7831 26.5067 21.9598 26.2333 22.0798 25.9C22.1998 25.5667 22.2598 25.1633 22.2598 24.69V24.48C22.2598 23.9933 22.1998 23.5833 22.0798 23.25C21.9598 22.91 21.7831 22.6367 21.5498 22.43C21.3231 22.2167 21.0464 22.0633 20.7198 21.97C20.3931 21.87 20.0231 21.82 19.6098 21.82H17.9598V27.32ZM24.5428 28V21.14H29.7928V21.82H25.3328V24.14H29.3528V24.83H25.3328V27.32H29.8528V28H24.5428ZM33.8299 28.12C33.4633 28.12 33.1066 28.0867 32.7599 28.02C32.4133 27.9533 32.1066 27.84 31.8399 27.68C31.5733 27.52 31.3633 27.31 31.2099 27.05C31.0566 26.79 30.9799 26.4667 30.9799 26.08C30.9799 26.0467 30.9799 26.0167 30.9799 25.99C30.9799 25.9567 30.9833 25.9233 30.9899 25.89H31.7799C31.7799 25.9167 31.7766 25.9533 31.7699 26C31.7699 26.0467 31.7699 26.0867 31.7699 26.12C31.7699 26.4133 31.8566 26.66 32.0299 26.86C32.2099 27.0533 32.4499 27.2 32.7499 27.3C33.0566 27.3933 33.3999 27.44 33.7799 27.44C33.9066 27.44 34.0566 27.4333 34.2299 27.42C34.4099 27.4 34.5899 27.3667 34.7699 27.32C34.9566 27.2667 35.1266 27.1967 35.2799 27.11C35.4333 27.0167 35.5566 26.9 35.6499 26.76C35.7499 26.6133 35.7999 26.4333 35.7999 26.22C35.7999 25.9733 35.7333 25.77 35.5999 25.61C35.4666 25.45 35.2899 25.32 35.0699 25.22C34.8566 25.1133 34.6099 25.02 34.3299 24.94C34.0499 24.86 33.7633 24.7833 33.4699 24.71C33.1766 24.6367 32.8899 24.5533 32.6099 24.46C32.3366 24.3667 32.0899 24.25 31.8699 24.11C31.6499 23.97 31.4733 23.7967 31.3399 23.59C31.2133 23.3767 31.1499 23.1167 31.1499 22.81C31.1499 22.5433 31.2033 22.3 31.3099 22.08C31.4166 21.86 31.5799 21.6733 31.7999 21.52C32.0199 21.36 32.2999 21.2367 32.6399 21.15C32.9799 21.0633 33.3833 21.02 33.8499 21.02C34.2033 21.02 34.5333 21.0567 34.8399 21.13C35.1466 21.2033 35.4166 21.32 35.6499 21.48C35.8833 21.6333 36.0633 21.83 36.1899 22.07C36.3233 22.3033 36.3899 22.5867 36.3899 22.92V23.04H35.6099V22.87C35.6099 22.6233 35.5333 22.4167 35.3799 22.25C35.2266 22.0767 35.0199 21.9433 34.7599 21.85C34.5066 21.75 34.2166 21.7 33.8899 21.7C33.4433 21.7 33.0766 21.7467 32.7899 21.84C32.5033 21.9267 32.2899 22.05 32.1499 22.21C32.0099 22.3633 31.9399 22.5367 31.9399 22.73C31.9399 22.9567 32.0066 23.1467 32.1399 23.3C32.2733 23.4467 32.4499 23.57 32.6699 23.67C32.8899 23.7633 33.1366 23.85 33.4099 23.93C33.6899 24.0033 33.9766 24.0767 34.2699 24.15C34.5633 24.2233 34.8466 24.31 35.1199 24.41C35.3999 24.5033 35.6499 24.6233 35.8699 24.77C36.0966 24.91 36.2733 25.0867 36.3999 25.3C36.5333 25.5133 36.5999 25.7767 36.5999 26.09C36.5999 26.5633 36.4799 26.95 36.2399 27.25C36.0066 27.55 35.6833 27.77 35.2699 27.91C34.8566 28.05 34.3766 28.12 33.8299 28.12ZM38.078 28V21.14H38.868V28H38.078ZM43.7456 28.12C42.619 28.12 41.769 27.83 41.1956 27.25C40.6223 26.6633 40.3356 25.77 40.3356 24.57C40.3356 23.79 40.4656 23.1367 40.7256 22.61C40.9923 22.0833 41.3823 21.6867 41.8956 21.42C42.4156 21.1533 43.0556 21.02 43.8156 21.02C44.289 21.02 44.7123 21.0733 45.0856 21.18C45.4656 21.28 45.789 21.4333 46.0556 21.64C46.329 21.84 46.5356 22.0933 46.6756 22.4C46.8223 22.7067 46.8956 23.0667 46.8956 23.48H46.0956C46.0956 23.1533 46.039 22.8767 45.9256 22.65C45.8123 22.4233 45.6523 22.24 45.4456 22.1C45.239 21.9533 44.9956 21.85 44.7156 21.79C44.4356 21.73 44.1356 21.7 43.8156 21.7C43.4023 21.7 43.0323 21.7533 42.7056 21.86C42.379 21.96 42.099 22.1233 41.8656 22.35C41.6323 22.57 41.4556 22.8567 41.3356 23.21C41.2156 23.5567 41.1556 23.9767 41.1556 24.47V24.68C41.1556 25.34 41.259 25.8733 41.4656 26.28C41.6723 26.6867 41.9656 26.9833 42.3456 27.17C42.7323 27.35 43.1923 27.44 43.7256 27.44C44.2923 27.44 44.749 27.3633 45.0956 27.21C45.449 27.05 45.7056 26.81 45.8656 26.49C46.0256 26.1633 46.1056 25.75 46.1056 25.25V25.1H43.5756V24.43H46.8956V28H46.2856L46.1856 27.08C46.019 27.3267 45.8056 27.5267 45.5456 27.68C45.2923 27.8333 45.009 27.9433 44.6956 28.01C44.389 28.0833 44.0723 28.12 43.7456 28.12ZM48.6444 28V21.14H49.4144L52.9244 25.88C52.9644 25.9267 53.011 25.99 53.0644 26.07C53.1244 26.15 53.181 26.2333 53.2344 26.32C53.2944 26.4 53.3444 26.4733 53.3844 26.54H53.4344C53.4344 26.4267 53.4344 26.3167 53.4344 26.21C53.4344 26.0967 53.4344 25.9867 53.4344 25.88V21.14H54.2044V28H53.5144L49.9344 23.16C49.8877 23.0933 49.8144 22.99 49.7144 22.85C49.6144 22.7033 49.5277 22.58 49.4544 22.48H49.4144C49.4144 22.5933 49.4144 22.7067 49.4144 22.82C49.4144 22.9267 49.4144 23.04 49.4144 23.16V28H48.6444ZM56.0174 28V21.14H61.2674V21.82H56.8074V24.14H60.8274V24.83H56.8074V27.32H61.3274V28H56.0174ZM62.8045 28V21.14H66.4045C66.8579 21.14 67.2312 21.2267 67.5245 21.4C67.8245 21.5667 68.0479 21.7967 68.1945 22.09C68.3479 22.3833 68.4245 22.7167 68.4245 23.09C68.4245 23.5767 68.3112 23.99 68.0845 24.33C67.8645 24.6633 67.5712 24.9 67.2045 25.04L68.6645 28H67.7945L66.4245 25.18H63.5945V28H62.8045ZM63.5945 24.5H66.3245C66.7312 24.5 67.0512 24.3767 67.2845 24.13C67.5179 23.8767 67.6345 23.53 67.6345 23.09C67.6345 22.8233 67.5845 22.5967 67.4845 22.41C67.3845 22.2233 67.2379 22.08 67.0445 21.98C66.8512 21.8733 66.6112 21.82 66.3245 21.82H63.5945V24.5Z" fill="#65868D"/>
<path d="M1.35227 14V3.81818H2.28196V9.30185H2.37145L7.34304 3.81818H8.56605L4.21591 8.52628L8.54617 14H7.41264L3.6392 9.17259L2.28196 10.6939V14H1.35227ZM10.3359 14H9.36151L13.0653 3.81818H14.0597L17.7635 14H16.7891L13.5973 5.02628H13.5277L10.3359 14ZM11.0369 10.0973H16.0881V10.9325H11.0369V10.0973ZM25.0369 6.36364C24.9806 5.79687 24.7304 5.34612 24.2862 5.01136C23.8421 4.67661 23.2836 4.50923 22.6108 4.50923C22.1368 4.50923 21.7192 4.59044 21.358 4.75284C21 4.91525 20.7183 5.14062 20.5128 5.42898C20.3106 5.71402 20.2095 6.03883 20.2095 6.40341C20.2095 6.67188 20.2675 6.9072 20.3835 7.10938C20.4995 7.31155 20.6553 7.48556 20.8509 7.63139C21.0497 7.77391 21.2685 7.89654 21.5071 7.99929C21.7491 8.10204 21.9927 8.18821 22.2379 8.25781L23.3118 8.56605C23.6366 8.65554 23.9614 8.76989 24.2862 8.90909C24.611 9.0483 24.9077 9.22396 25.1761 9.43608C25.4479 9.64489 25.665 9.90175 25.8274 10.2067C25.9931 10.5083 26.076 10.8712 26.076 11.2955C26.076 11.839 25.9351 12.3279 25.6534 12.7621C25.3717 13.1963 24.9673 13.541 24.4403 13.7962C23.9134 14.0481 23.282 14.174 22.5462 14.174C21.8535 14.174 21.2519 14.0597 20.7415 13.831C20.2311 13.599 19.83 13.2791 19.5384 12.8714C19.2467 12.4638 19.0826 11.9915 19.0462 11.4545H20.0007C20.0339 11.8556 20.1664 12.1953 20.3984 12.4737C20.6304 12.7521 20.9321 12.9643 21.3033 13.1101C21.6745 13.2526 22.0888 13.3239 22.5462 13.3239C23.0533 13.3239 23.504 13.2393 23.8984 13.0703C24.2962 12.898 24.6077 12.6593 24.8331 12.3544C25.0618 12.0462 25.1761 11.6882 25.1761 11.2805C25.1761 10.9358 25.0866 10.6475 24.9077 10.4155C24.7287 10.1802 24.4785 9.98295 24.157 9.82386C23.8388 9.66477 23.4692 9.52391 23.0483 9.40128L21.8303 9.04332C21.0315 8.80469 20.4117 8.4749 19.9709 8.05398C19.5301 7.63305 19.3097 7.09612 19.3097 6.44318C19.3097 5.89631 19.4555 5.41572 19.7472 5.00142C20.0421 4.58381 20.4399 4.259 20.9403 4.02699C21.4441 3.79167 22.0092 3.67401 22.6357 3.67401C23.2687 3.67401 23.8288 3.79001 24.3161 4.02202C24.8033 4.25402 25.1894 4.57386 25.4744 4.98153C25.7628 5.38589 25.9169 5.84659 25.9368 6.36364H25.0369ZM29.2429 3.81818V14H28.3132V3.81818H29.2429ZM31.9648 14H30.9904L34.6942 3.81818H35.6886L39.3924 14H38.418L35.2262 5.02628H35.1566L31.9648 14ZM32.6658 10.0973H37.717V10.9325H32.6658V10.0973ZM50.6033 6.36364C50.547 5.79687 50.2968 5.34612 49.8526 5.01136C49.4085 4.67661 48.85 4.50923 48.1772 4.50923C47.7032 4.50923 47.2856 4.59044 46.9244 4.75284C46.5664 4.91525 46.2847 5.14062 46.0792 5.42898C45.877 5.71402 45.7759 6.03883 45.7759 6.40341C45.7759 6.67188 45.8339 6.9072 45.9499 7.10938C46.0659 7.31155 46.2217 7.48556 46.4173 7.63139C46.6161 7.77391 46.8349 7.89654 47.0735 7.99929C47.3155 8.10204 47.5591 8.18821 47.8043 8.25781L48.8782 8.56605C49.203 8.65554 49.5278 8.76989 49.8526 8.90909C50.1774 9.0483 50.4741 9.22396 50.7425 9.43608C51.0143 9.64489 51.2314 9.90175 51.3938 10.2067C51.5595 10.5083 51.6424 10.8712 51.6424 11.2955C51.6424 11.839 51.5015 12.3279 51.2198 12.7621C50.9381 13.1963 50.5337 13.541 50.0067 13.7962C49.4798 14.0481 48.8484 14.174 48.1126 14.174C47.4199 14.174 46.8183 14.0597 46.3079 13.831C45.7975 13.599 45.3964 13.2791 45.1048 12.8714C44.8131 12.4638 44.649 11.9915 44.6126 11.4545H45.5671C45.6003 11.8556 45.7328 12.1953 45.9648 12.4737C46.1969 12.7521 46.4985 12.9643 46.8697 13.1101C47.2409 13.2526 47.6552 13.3239 48.1126 13.3239C48.6197 13.3239 49.0704 13.2393 49.4648 13.0703C49.8626 12.898 50.1741 12.6593 50.3995 12.3544C50.6282 12.0462 50.7425 11.6882 50.7425 11.2805C50.7425 10.9358 50.6531 10.6475 50.4741 10.4155C50.2951 10.1802 50.0449 9.98295 49.7234 9.82386C49.4052 9.66477 49.0356 9.52391 48.6147 9.40128L47.3967 9.04332C46.5979 8.80469 45.9781 8.4749 45.5373 8.05398C45.0965 7.63305 44.8761 7.09612 44.8761 6.44318C44.8761 5.89631 45.0219 5.41572 45.3136 5.00142C45.6085 4.58381 46.0063 4.259 46.5067 4.02699C47.0105 3.79167 47.5756 3.67401 48.2021 3.67401C48.8351 3.67401 49.3952 3.79001 49.8825 4.02202C50.3697 4.25402 50.7558 4.57386 51.0408 4.98153C51.3292 5.38589 51.4833 5.84659 51.5032 6.36364H50.6033ZM53.8796 14V3.81818H54.8093V9.30185H54.8988L59.8704 3.81818H61.0934L56.7433 8.52628L61.0735 14H59.94L56.1665 9.17259L54.8093 10.6939V14H53.8796ZM62.8484 14V3.81818H66.1346C66.8571 3.81818 67.4603 3.9491 67.9442 4.21094C68.4315 4.46946 68.7977 4.82907 69.043 5.28977C69.2915 5.74716 69.4158 6.27249 69.4158 6.86577C69.4158 7.45904 69.2915 7.98272 69.043 8.43679C68.7977 8.89086 68.4331 9.2455 67.9492 9.50071C67.4653 9.75592 66.8654 9.88352 66.1495 9.88352H63.3505V9.03338H66.1246C66.6549 9.03338 67.0958 8.94555 67.4471 8.76989C67.8017 8.59422 68.0652 8.34399 68.2376 8.01918C68.4132 7.69437 68.5011 7.3099 68.5011 6.86577C68.5011 6.42164 68.4132 6.03385 68.2376 5.70241C68.0619 5.36766 67.7968 5.10914 67.4421 4.92685C67.0908 4.74455 66.6467 4.65341 66.1097 4.65341H63.7781V14H62.8484ZM67.3377 9.40625L69.8434 14H68.7695L66.2887 9.40625H67.3377ZM71.2777 14V13.299L76.9304 4.65341H71.2479V3.81818H78.0391V4.51918L72.3814 13.1648H78.0888V14H71.2777ZM79.3801 3.81818H80.454L83.4718 8.65057H83.5613L86.579 3.81818H87.6529L83.9789 9.5902V14H83.0542V9.5902L79.3801 3.81818ZM89.3991 14V3.81818H92.6854C93.4079 3.81818 94.0111 3.95739 94.495 4.2358C94.9822 4.51089 95.3485 4.88542 95.5938 5.35938C95.8423 5.83333 95.9666 6.36695 95.9666 6.96023C95.9666 7.5535 95.844 8.08878 95.5987 8.56605C95.3535 9.04001 94.9889 9.41619 94.505 9.6946C94.0211 9.9697 93.4195 10.1072 92.7003 10.1072H90.1151V9.27202H92.6754C93.209 9.27202 93.6515 9.17258 94.0028 8.97372C94.3542 8.77154 94.616 8.49645 94.7884 8.14844C94.964 7.80043 95.0518 7.40436 95.0518 6.96023C95.0518 6.5161 94.964 6.12003 94.7884 5.77202C94.616 5.42401 94.3525 5.15057 93.9979 4.9517C93.6465 4.75284 93.2008 4.65341 92.6605 4.65341H90.3288V14H89.3991ZM98.1491 14V3.81818H104.055V4.65341H99.0788V8.48651H103.742V9.32173H99.0788V13.1648H104.155V14H98.1491ZM106.462 14V3.81818H107.391V9.30185H107.481L112.452 3.81818H113.675L109.325 8.52628L113.656 14H112.522L108.749 9.17259L107.391 10.6939V14H106.462Z" fill="#164D59"/>
</svg>
