<svg width="140" height="37" viewBox="0 0 140 37" fill="none" xmlns="http://www.w3.org/2000/svg">
<path d="M28.65 31.12C28.0767 31.12 27.5833 31.03 27.17 30.85C26.7633 30.6633 26.45 30.3667 26.23 29.96C26.01 29.5533 25.9 29.0267 25.9 28.38V24.14H26.69V28.54C26.69 29.1733 26.86 29.6467 27.2 29.96C27.5467 30.2733 28.03 30.43 28.65 30.43C29.2833 30.43 29.7767 30.2733 30.13 29.96C30.49 29.6467 30.67 29.1733 30.67 28.54V24.14H31.45V28.38C31.45 29.0267 31.3367 29.5533 31.11 29.96C30.89 30.3667 30.57 30.6633 30.15 30.85C29.7367 31.03 29.2367 31.12 28.65 31.12ZM32.4735 31L35.2435 27.41L32.7235 24.14H33.6935L35.7335 26.81H35.7835L37.7835 24.14H38.7135L36.2435 27.4L39.0135 31H38.0435L35.7535 28H35.7035L33.4135 31H32.4735ZM42.1698 31V24.14H44.6398C45.3731 24.14 45.9931 24.26 46.4998 24.5C47.0131 24.7333 47.4031 25.1033 47.6698 25.61C47.9431 26.11 48.0798 26.7633 48.0798 27.57C48.0798 28.3633 47.9431 29.0133 47.6698 29.52C47.4031 30.0267 47.0131 30.4 46.4998 30.64C45.9931 30.88 45.3731 31 44.6398 31H42.1698ZM42.9598 30.32H44.6098C45.0164 30.32 45.3831 30.2733 45.7098 30.18C46.0364 30.08 46.3164 29.9267 46.5498 29.72C46.7831 29.5067 46.9598 29.2333 47.0798 28.9C47.1998 28.5667 47.2598 28.1633 47.2598 27.69V27.48C47.2598 26.9933 47.1998 26.5833 47.0798 26.25C46.9598 25.91 46.7831 25.6367 46.5498 25.43C46.3231 25.2167 46.0464 25.0633 45.7198 24.97C45.3931 24.87 45.0231 24.82 44.6098 24.82H42.9598V30.32ZM49.5428 31V24.14H54.7928V24.82H50.3328V27.14H54.3528V27.83H50.3328V30.32H54.8528V31H49.5428ZM58.8299 31.12C58.4633 31.12 58.1066 31.0867 57.7599 31.02C57.4133 30.9533 57.1066 30.84 56.8399 30.68C56.5733 30.52 56.3633 30.31 56.2099 30.05C56.0566 29.79 55.9799 29.4667 55.9799 29.08C55.9799 29.0467 55.9799 29.0167 55.9799 28.99C55.9799 28.9567 55.9833 28.9233 55.9899 28.89H56.7799C56.7799 28.9167 56.7766 28.9533 56.7699 29C56.7699 29.0467 56.7699 29.0867 56.7699 29.12C56.7699 29.4133 56.8566 29.66 57.0299 29.86C57.2099 30.0533 57.4499 30.2 57.7499 30.3C58.0566 30.3933 58.3999 30.44 58.7799 30.44C58.9066 30.44 59.0566 30.4333 59.2299 30.42C59.4099 30.4 59.5899 30.3667 59.7699 30.32C59.9566 30.2667 60.1266 30.1967 60.2799 30.11C60.4333 30.0167 60.5566 29.9 60.6499 29.76C60.7499 29.6133 60.7999 29.4333 60.7999 29.22C60.7999 28.9733 60.7333 28.77 60.5999 28.61C60.4666 28.45 60.2899 28.32 60.0699 28.22C59.8566 28.1133 59.6099 28.02 59.3299 27.94C59.0499 27.86 58.7633 27.7833 58.4699 27.71C58.1766 27.6367 57.8899 27.5533 57.6099 27.46C57.3366 27.3667 57.0899 27.25 56.8699 27.11C56.6499 26.97 56.4733 26.7967 56.3399 26.59C56.2133 26.3767 56.1499 26.1167 56.1499 25.81C56.1499 25.5433 56.2033 25.3 56.3099 25.08C56.4166 24.86 56.5799 24.6733 56.7999 24.52C57.0199 24.36 57.2999 24.2367 57.6399 24.15C57.9799 24.0633 58.3833 24.02 58.8499 24.02C59.2033 24.02 59.5333 24.0567 59.8399 24.13C60.1466 24.2033 60.4166 24.32 60.6499 24.48C60.8833 24.6333 61.0633 24.83 61.1899 25.07C61.3233 25.3033 61.3899 25.5867 61.3899 25.92V26.04H60.6099V25.87C60.6099 25.6233 60.5333 25.4167 60.3799 25.25C60.2266 25.0767 60.0199 24.9433 59.7599 24.85C59.5066 24.75 59.2166 24.7 58.8899 24.7C58.4433 24.7 58.0766 24.7467 57.7899 24.84C57.5033 24.9267 57.2899 25.05 57.1499 25.21C57.0099 25.3633 56.9399 25.5367 56.9399 25.73C56.9399 25.9567 57.0066 26.1467 57.1399 26.3C57.2733 26.4467 57.4499 26.57 57.6699 26.67C57.8899 26.7633 58.1366 26.85 58.4099 26.93C58.6899 27.0033 58.9766 27.0767 59.2699 27.15C59.5633 27.2233 59.8466 27.31 60.1199 27.41C60.3999 27.5033 60.6499 27.6233 60.8699 27.77C61.0966 27.91 61.2733 28.0867 61.3999 28.3C61.5333 28.5133 61.5999 28.7767 61.5999 29.09C61.5999 29.5633 61.4799 29.95 61.2399 30.25C61.0066 30.55 60.6833 30.77 60.2699 30.91C59.8566 31.05 59.3766 31.12 58.8299 31.12ZM63.078 31V24.14H63.868V31H63.078ZM68.7456 31.12C67.619 31.12 66.769 30.83 66.1956 30.25C65.6223 29.6633 65.3356 28.77 65.3356 27.57C65.3356 26.79 65.4656 26.1367 65.7256 25.61C65.9923 25.0833 66.3823 24.6867 66.8956 24.42C67.4156 24.1533 68.0556 24.02 68.8156 24.02C69.289 24.02 69.7123 24.0733 70.0856 24.18C70.4656 24.28 70.789 24.4333 71.0556 24.64C71.329 24.84 71.5356 25.0933 71.6756 25.4C71.8223 25.7067 71.8956 26.0667 71.8956 26.48H71.0956C71.0956 26.1533 71.039 25.8767 70.9256 25.65C70.8123 25.4233 70.6523 25.24 70.4456 25.1C70.239 24.9533 69.9956 24.85 69.7156 24.79C69.4356 24.73 69.1356 24.7 68.8156 24.7C68.4023 24.7 68.0323 24.7533 67.7056 24.86C67.379 24.96 67.099 25.1233 66.8656 25.35C66.6323 25.57 66.4556 25.8567 66.3356 26.21C66.2156 26.5567 66.1556 26.9767 66.1556 27.47V27.68C66.1556 28.34 66.259 28.8733 66.4656 29.28C66.6723 29.6867 66.9656 29.9833 67.3456 30.17C67.7323 30.35 68.1923 30.44 68.7256 30.44C69.2923 30.44 69.749 30.3633 70.0956 30.21C70.449 30.05 70.7056 29.81 70.8656 29.49C71.0256 29.1633 71.1056 28.75 71.1056 28.25V28.1H68.5756V27.43H71.8956V31H71.2856L71.1856 30.08C71.019 30.3267 70.8056 30.5267 70.5456 30.68C70.2923 30.8333 70.009 30.9433 69.6956 31.01C69.389 31.0833 69.0723 31.12 68.7456 31.12ZM73.6444 31V24.14H74.4144L77.9244 28.88C77.9644 28.9267 78.011 28.99 78.0644 29.07C78.1244 29.15 78.181 29.2333 78.2344 29.32C78.2944 29.4 78.3444 29.4733 78.3844 29.54H78.4344C78.4344 29.4267 78.4344 29.3167 78.4344 29.21C78.4344 29.0967 78.4344 28.9867 78.4344 28.88V24.14H79.2044V31H78.5144L74.9344 26.16C74.8877 26.0933 74.8144 25.99 74.7144 25.85C74.6144 25.7033 74.5277 25.58 74.4544 25.48H74.4144C74.4144 25.5933 74.4144 25.7067 74.4144 25.82C74.4144 25.9267 74.4144 26.04 74.4144 26.16V31H73.6444ZM81.0174 31V24.14H86.2674V24.82H81.8074V27.14H85.8274V27.83H81.8074V30.32H86.3274V31H81.0174ZM87.8045 31V24.14H91.4045C91.8579 24.14 92.2312 24.2267 92.5245 24.4C92.8245 24.5667 93.0479 24.7967 93.1945 25.09C93.3479 25.3833 93.4245 25.7167 93.4245 26.09C93.4245 26.5767 93.3112 26.99 93.0845 27.33C92.8645 27.6633 92.5712 27.9 92.2045 28.04L93.6645 31H92.7945L91.4245 28.18H88.5945V31H87.8045ZM88.5945 27.5H91.3245C91.7312 27.5 92.0512 27.3767 92.2845 27.13C92.5179 26.8767 92.6345 26.53 92.6345 26.09C92.6345 25.8233 92.5845 25.5967 92.4845 25.41C92.3845 25.2233 92.2379 25.08 92.0445 24.98C91.8512 24.8733 91.6112 24.82 91.3245 24.82H88.5945V27.5Z" fill="#65868D"/>
<path d="M26.3523 17V6.81818H27.282V12.3018H27.3714L32.343 6.81818H33.5661L29.2159 11.5263L33.5462 17H32.4126L28.6392 12.1726L27.282 13.6939V17H26.3523ZM35.3359 17H34.3615L38.0653 6.81818H39.0597L42.7635 17H41.7891L38.5973 8.02628H38.5277L35.3359 17ZM36.0369 13.0973H41.0881V13.9325H36.0369V13.0973ZM50.0369 9.36364C49.9806 8.79687 49.7304 8.34612 49.2862 8.01136C48.8421 7.67661 48.2836 7.50923 47.6108 7.50923C47.1368 7.50923 46.7192 7.59044 46.358 7.75284C46 7.91525 45.7183 8.14062 45.5128 8.42898C45.3106 8.71402 45.2095 9.03883 45.2095 9.40341C45.2095 9.67188 45.2675 9.9072 45.3835 10.1094C45.4995 10.3116 45.6553 10.4856 45.8509 10.6314C46.0497 10.7739 46.2685 10.8965 46.5071 10.9993C46.7491 11.102 46.9927 11.1882 47.2379 11.2578L48.3118 11.5661C48.6366 11.6555 48.9614 11.7699 49.2862 11.9091C49.611 12.0483 49.9077 12.224 50.1761 12.4361C50.4479 12.6449 50.665 12.9018 50.8274 13.2067C50.9931 13.5083 51.076 13.8712 51.076 14.2955C51.076 14.839 50.9351 15.3279 50.6534 15.7621C50.3717 16.1963 49.9673 16.541 49.4403 16.7962C48.9134 17.0481 48.282 17.174 47.5462 17.174C46.8535 17.174 46.2519 17.0597 45.7415 16.831C45.2311 16.599 44.83 16.2791 44.5384 15.8714C44.2467 15.4638 44.0826 14.9915 44.0462 14.4545H45.0007C45.0339 14.8556 45.1664 15.1953 45.3984 15.4737C45.6304 15.7521 45.9321 15.9643 46.3033 16.1101C46.6745 16.2526 47.0888 16.3239 47.5462 16.3239C48.0533 16.3239 48.504 16.2393 48.8984 16.0703C49.2962 15.898 49.6077 15.6593 49.8331 15.3544C50.0618 15.0462 50.1761 14.6882 50.1761 14.2805C50.1761 13.9358 50.0866 13.6475 49.9077 13.4155C49.7287 13.1802 49.4785 12.983 49.157 12.8239C48.8388 12.6648 48.4692 12.5239 48.0483 12.4013L46.8303 12.0433C46.0315 11.8047 45.4117 11.4749 44.9709 11.054C44.5301 10.633 44.3097 10.0961 44.3097 9.44318C44.3097 8.89631 44.4555 8.41572 44.7472 8.00142C45.0421 7.58381 45.4399 7.259 45.9403 7.02699C46.4441 6.79167 47.0092 6.67401 47.6357 6.67401C48.2687 6.67401 48.8288 6.79001 49.3161 7.02202C49.8033 7.25402 50.1894 7.57386 50.4744 7.98153C50.7628 8.38589 50.9169 8.84659 50.9368 9.36364H50.0369ZM54.2429 6.81818V17H53.3132V6.81818H54.2429ZM56.9648 17H55.9904L59.6942 6.81818H60.6886L64.3924 17H63.418L60.2262 8.02628H60.1566L56.9648 17ZM57.6658 13.0973H62.717V13.9325H57.6658V13.0973ZM75.6033 9.36364C75.547 8.79687 75.2968 8.34612 74.8526 8.01136C74.4085 7.67661 73.85 7.50923 73.1772 7.50923C72.7032 7.50923 72.2856 7.59044 71.9244 7.75284C71.5664 7.91525 71.2847 8.14062 71.0792 8.42898C70.877 8.71402 70.7759 9.03883 70.7759 9.40341C70.7759 9.67188 70.8339 9.9072 70.9499 10.1094C71.0659 10.3116 71.2217 10.4856 71.4173 10.6314C71.6161 10.7739 71.8349 10.8965 72.0735 10.9993C72.3155 11.102 72.5591 11.1882 72.8043 11.2578L73.8782 11.5661C74.203 11.6555 74.5278 11.7699 74.8526 11.9091C75.1774 12.0483 75.4741 12.224 75.7425 12.4361C76.0143 12.6449 76.2314 12.9018 76.3938 13.2067C76.5595 13.5083 76.6424 13.8712 76.6424 14.2955C76.6424 14.839 76.5015 15.3279 76.2198 15.7621C75.9381 16.1963 75.5337 16.541 75.0067 16.7962C74.4798 17.0481 73.8484 17.174 73.1126 17.174C72.4199 17.174 71.8183 17.0597 71.3079 16.831C70.7975 16.599 70.3964 16.2791 70.1048 15.8714C69.8131 15.4638 69.649 14.9915 69.6126 14.4545H70.5671C70.6003 14.8556 70.7328 15.1953 70.9648 15.4737C71.1969 15.7521 71.4985 15.9643 71.8697 16.1101C72.2409 16.2526 72.6552 16.3239 73.1126 16.3239C73.6197 16.3239 74.0704 16.2393 74.4648 16.0703C74.8626 15.898 75.1741 15.6593 75.3995 15.3544C75.6282 15.0462 75.7425 14.6882 75.7425 14.2805C75.7425 13.9358 75.6531 13.6475 75.4741 13.4155C75.2951 13.1802 75.0449 12.983 74.7234 12.8239C74.4052 12.6648 74.0356 12.5239 73.6147 12.4013L72.3967 12.0433C71.5979 11.8047 70.9781 11.4749 70.5373 11.054C70.0965 10.633 69.8761 10.0961 69.8761 9.44318C69.8761 8.89631 70.0219 8.41572 70.3136 8.00142C70.6085 7.58381 71.0063 7.259 71.5067 7.02699C72.0105 6.79167 72.5756 6.67401 73.2021 6.67401C73.8351 6.67401 74.3952 6.79001 74.8825 7.02202C75.3697 7.25402 75.7558 7.57386 76.0408 7.98153C76.3292 8.38589 76.4833 8.84659 76.5032 9.36364H75.6033ZM78.8796 17V6.81818H79.8093V12.3018H79.8988L84.8704 6.81818H86.0934L81.7433 11.5263L86.0735 17H84.94L81.1665 12.1726L79.8093 13.6939V17H78.8796ZM87.8484 17V6.81818H91.1346C91.8571 6.81818 92.4603 6.9491 92.9442 7.21094C93.4315 7.46946 93.7977 7.82907 94.043 8.28977C94.2915 8.74716 94.4158 9.27249 94.4158 9.86577C94.4158 10.459 94.2915 10.9827 94.043 11.4368C93.7977 11.8909 93.4331 12.2455 92.9492 12.5007C92.4653 12.7559 91.8654 12.8835 91.1495 12.8835H88.3505V12.0334H91.1246C91.6549 12.0334 92.0958 11.9455 92.4471 11.7699C92.8017 11.5942 93.0652 11.344 93.2376 11.0192C93.4132 10.6944 93.5011 10.3099 93.5011 9.86577C93.5011 9.42164 93.4132 9.03385 93.2376 8.70241C93.0619 8.36766 92.7968 8.10914 92.4421 7.92685C92.0908 7.74455 91.6467 7.65341 91.1097 7.65341H88.7781V17H87.8484ZM92.3377 12.4062L94.8434 17H93.7695L91.2887 12.4062H92.3377ZM96.2777 17V16.299L101.93 7.65341H96.2479V6.81818H103.039V7.51918L97.3814 16.1648H103.089V17H96.2777ZM104.38 6.81818H105.454L108.472 11.6506H108.561L111.579 6.81818H112.653L108.979 12.5902V17H108.054V12.5902L104.38 6.81818ZM114.399 17V6.81818H117.685C118.408 6.81818 119.011 6.95739 119.495 7.2358C119.982 7.51089 120.348 7.88542 120.594 8.35938C120.842 8.83333 120.967 9.36695 120.967 9.96023C120.967 10.5535 120.844 11.0888 120.599 11.5661C120.353 12.04 119.989 12.4162 119.505 12.6946C119.021 12.9697 118.42 13.1072 117.7 13.1072H115.115V12.272H117.675C118.209 12.272 118.652 12.1726 119.003 11.9737C119.354 11.7715 119.616 11.4964 119.788 11.1484C119.964 10.8004 120.052 10.4044 120.052 9.96023C120.052 9.5161 119.964 9.12003 119.788 8.77202C119.616 8.42401 119.353 8.15057 118.998 7.9517C118.647 7.75284 118.201 7.65341 117.661 7.65341H115.329V17H114.399ZM123.149 17V6.81818H129.055V7.65341H124.079V11.4865H128.742V12.3217H124.079V16.1648H129.155V17H123.149ZM131.462 17V6.81818H132.391V12.3018H132.481L137.452 6.81818H138.675L134.325 11.5263L138.656 17H137.522L133.749 12.1726L132.391 13.6939V17H131.462Z" fill="#164D59"/>
<rect width="1.43411" height="24.3798" rx="0.717054" fill="#164D59"/>
<path d="M15.2979 0.141441C15.5874 -0.0857889 16.0051 -0.0336754 16.2308 0.257839C16.4565 0.549353 16.4047 0.969878 16.1152 1.19711L1.38115 12.7601C1.0916 12.9873 0.673918 12.9352 0.448222 12.6437C0.222526 12.3521 0.274287 11.9316 0.563833 11.7044L15.2979 0.141441Z" fill="#164D59"/>
<path d="M16.0812 24.0497C16.3707 23.8225 16.7884 23.8746 17.0141 24.1661C17.2398 24.4576 17.188 24.8781 16.8985 25.1053L1.92202 36.8586C1.63248 37.0858 1.21479 37.0337 0.989093 36.7422C0.763397 36.4506 0.815158 36.0301 1.1047 35.8029L16.0812 24.0497Z" fill="#164D59"/>
<path d="M16.1359 25.0475C16.4254 25.2748 16.8431 25.2227 17.0688 24.9311C17.2945 24.6396 17.2427 24.2191 16.9532 23.9919L1.36022 11.7548C1.07067 11.5276 0.652987 11.5797 0.427291 11.8712C0.201594 12.1628 0.253355 12.5833 0.542902 12.8105L16.1359 25.0475Z" fill="#164D59"/>
</svg>
