<?xml version="1.0" standalone="no"?>
<!DOCTYPE svg PUBLIC "-//W3C//DTD SVG 20010904//EN"
 "http://www.w3.org/TR/2001/REC-SVG-20010904/DTD/svg10.dtd">
<svg version="1.0" xmlns="http://www.w3.org/2000/svg"
 width="530.000000pt" height="530.000000pt" viewBox="0 0 530.000000 530.000000"
 preserveAspectRatio="xMidYMid meet">
<metadata>
Created by potrace 1.14, written by Peter Selinger 2001-2017
</metadata>
<g transform="translate(0.000000,530.000000) scale(0.100000,-0.100000)"
fill="#000000" stroke="none">
<path d="M3587 5255 c-30 -22 -157 -119 -282 -215 -125 -96 -279 -215 -343
-264 -65 -49 -162 -124 -217 -166 -256 -197 -335 -257 -365 -280 -56 -43 -574
-440 -590 -453 -73 -57 -179 -137 -184 -137 -3 0 -6 330 -6 733 0 565 -3 738
-13 757 -7 14 -27 32 -45 42 -39 19 -84 11 -117 -22 -20 -21 -20 -23 -20
-1771 l0 -1751 33 -28 c42 -35 94 -33 131 5 l26 25 5 786 5 785 340 -257 c187
-141 387 -292 445 -335 58 -43 110 -82 115 -86 6 -5 129 -98 275 -208 146
-110 297 -223 335 -252 39 -29 75 -56 80 -61 47 -35 172 -129 185 -139 22 -17
163 -123 209 -157 l40 -29 -267 -199 c-147 -109 -278 -206 -291 -215 -135
-100 -519 -386 -531 -396 -8 -7 -80 -60 -160 -119 -80 -58 -248 -183 -375
-277 -126 -94 -241 -179 -254 -188 -22 -16 -120 -90 -146 -110 -6 -5 -37 -28
-70 -53 -87 -64 -96 -77 -91 -128 6 -62 60 -103 119 -88 12 3 124 81 248 173
125 92 239 177 254 188 15 11 60 45 100 75 41 30 84 63 97 72 13 9 66 49 118
88 52 38 106 78 119 88 13 9 142 105 286 212 144 107 274 204 289 215 15 11
46 34 69 51 37 28 259 192 623 462 61 45 116 94 122 108 29 62 10 95 -96 169
-47 33 -90 65 -96 70 -6 6 -27 22 -46 35 -34 24 -48 34 -73 55 -7 6 -131 100
-277 210 -425 319 -444 334 -470 354 -14 11 -160 121 -325 245 -165 123 -304
229 -310 233 -5 5 -64 49 -130 98 -66 50 -122 92 -125 95 -3 3 -39 30 -80 60
-41 30 -77 57 -80 60 -3 3 -31 25 -63 49 -32 24 -56 48 -55 52 2 5 95 79 208
165 113 86 250 192 305 234 209 160 473 362 535 410 36 28 142 109 235 181 94
71 201 153 238 182 38 29 78 60 90 69 12 9 65 49 117 90 52 40 151 116 220
168 144 109 143 108 158 137 36 66 -22 148 -99 141 -15 -1 -51 -20 -82 -43z"/>
</g>
</svg>
